HIERARCHY
ROOT Hips
{
	OFFSET 0.00 0.00 0.00
	CHANNELS 6 Xposition Yposition Zposition Xrotation Yrotation Zrotation
	JOINT Spine
	{
		OFFSET 0.00000 7.50895 0.00000
		CHANNELS 3 Xrotation Yrotation Zrotation
		JOINT Head
		{
			OFFSET 0.00000 13.86115 0.00000
			CHANNELS 3 Xrotation Yrotation Zrotation
			End Site
			{
				OFFSET 0.00000 4.52755 0.00000
			}
		}
		JOINT LeftShoulder
		{
			OFFSET 0.00000 8.20478 0.00000
			CHANNELS 3 Xrotation Yrotation Zrotation
			JOINT LeftArm
			{
				OFFSET 6.63596 0.00000 0.00000
				CHANNELS 3 Xrotation Yrotation Zrotation
				JOINT LeftForeArm
				{
					OFFSET 10.27422 0.00000 0.00000
					CHANNELS 3 Yrotation Zrotation Xrotation
					JOINT LeftHand
					{
						OFFSET 8.52215 0.00000 0.00000
						CHANNELS 3 Xrotation Yrotation Zrotation
						JOINT LeftHandThumb1
						{
							OFFSET 0.00000 0.00000 0.00000
							CHANNELS 3 Xrotation Zrotation Yrotation
							End Site
							{
								OFFSET 0.00000 0.00000 3.93700
							}
						}
						End Site
						{
							OFFSET 3.93700 0.00000 0.00000
						}
					}
				}
			}
		}
		JOINT RightShoulder
		{
			OFFSET 0.00000 8.20478 0.00000
			CHANNELS 3 Xrotation Yrotation Zrotation
			JOINT RightArm
			{
				OFFSET -6.63596 0.00000 0.00000
				CHANNELS 3 Xrotation Yrotation Zrotation
				JOINT RightForeArm
				{
					OFFSET -10.27422 0.00000 0.00000
					CHANNELS 3 Yrotation Zrotation Xrotation
					JOINT RightHand
					{
						OFFSET -8.52215 0.00000 0.00000
						CHANNELS 3 Xrotation Yrotation Zrotation
						JOINT RightHandThumb1
						{
							OFFSET 0.00000 0.00000 0.00000
							CHANNELS 3 Xrotation Zrotation Yrotation
							End Site
							{
								OFFSET 0.00000 0.00000 3.93700
							}
						}
						End Site
						{
							OFFSET -3.93700 0.00000 0.00000
						}
					}
				}
			}
		}
	}
	JOINT LeftUpLeg
	{
		OFFSET 3.00056 0.00000 0.00000
		CHANNELS 3 Xrotation Yrotation Zrotation
		JOINT LeftLeg
		{
			OFFSET 0.00000 -16.49085 0.00000
			CHANNELS 3 Xrotation Yrotation Zrotation
			JOINT LeftFoot
			{
				OFFSET 0.00000 -14.55658 0.00000
				CHANNELS 3 Xrotation Yrotation Zrotation
				JOINT LeftToeBase
				{
					OFFSET 0.00000 -1.25038 4.66650
					CHANNELS 3 Xrotation Yrotation Zrotation
					End Site
					{
						OFFSET 0.00000 0.00000 2.95275
					}
				}
			}
		}
	}
	JOINT RightUpLeg
	{
		OFFSET -3.00056 0.00000 0.00000
		CHANNELS 3 Xrotation Yrotation Zrotation
		JOINT RightLeg
		{
			OFFSET 0.00000 -16.49085 0.00000
			CHANNELS 3 Xrotation Yrotation Zrotation
			JOINT RightFoot
			{
				OFFSET 0.00000 -14.55658 0.00000
				CHANNELS 3 Xrotation Yrotation Zrotation
				JOINT RightToeBase
				{
					OFFSET 0.00000 -1.25038 4.66650
					CHANNELS 3 Xrotation Yrotation Zrotation
					End Site
					{
						OFFSET 0.00000 0.00000 2.95275
					}
				}
			}
		}
	}
}
MOTION
Frames: 20
Frame Time: 0.008333
 -6.1990 32.8638 -4.4738 9.3422 5.7870 -1.7909 -15.9125 2.3172 3.0586 -7.9745 3.1783 15.0145 10.5650 18.0217 25.2930 -51.3539 -7.3678 -16.6207 -137.1228 -0.0000 -11.7416 3.2853 10.1695 -18.0099 33.1476 -0.0000 26.2537 -16.6979 -15.1702 -15.4792 13.8136 6.5376 74.0715 19.6523 -0.0000 22.2610 1.2233 -7.5807 9.1946 32.8623 0.0000 -24.3270 -4.3533 4.4451 5.2569 -2.1513 0.0000 -0.0000 -6.5694 10.8300 -15.9807 11.8806 0.0000 -0.0000 -5.1723 -10.2709 -3.2972 1.9908 0.0000 -0.0000 -7.9740 0.1163 -14.1081 -0.5296 0.0000 -0.0000
 -6.1988 32.8628 -4.4683 9.3973 5.7166 -1.7913 -15.9670 2.6780 3.0178 -7.9871 2.8705 15.1422 10.6939 18.3760 25.1859 -51.7349 -7.0083 -16.3340 -138.3482 -0.0000 -11.6097 3.2571 9.8356 -18.4253 33.1476 -0.0000 26.2537 -16.6475 -15.3128 -15.4684 13.8396 6.4392 74.0598 19.6672 -0.0000 22.3149 1.2488 -7.6561 9.2925 32.8623 0.0000 -24.3270 -4.3863 4.4781 5.2582 -2.1579 0.0000 0.0000 -6.5883 10.8806 -15.9916 11.9173 -0.0000 -0.0000 -5.2271 -10.2453 -3.2953 1.9897 0.0000 0.0000 -7.9836 0.1590 -14.1081 -0.5225 0.0000 -0.0000
 -6.1960 32.8618 -4.4607 9.4547 5.6597 -1.7948 -16.0269 3.0206 3.0074 -8.0177 2.5674 15.1802 10.8807 18.7967 24.9388 -52.0707 -6.9842 -15.9588 -139.5010 -0.0000 -11.6141 3.2252 9.6500 -18.5805 33.1476 -0.0000 26.2537 -16.6233 -15.3737 -15.4914 13.9428 6.3048 74.0655 19.7143 -0.0000 22.3610 1.2504 -7.7464 9.1987 32.8623 0.0000 -24.3270 -4.4182 4.5163 5.2562 -2.1688 0.0000 0.0000 -6.6042 10.9039 -15.9950 11.9091 -0.0000 0.0000 -5.2723 -10.2421 -3.2986 1.9704 0.0000 0.0000 -7.9715 0.2158 -14.0788 -0.5764 0.0000 0.0000
 -6.1931 32.8611 -4.4539 9.4984 5.6280 -1.8037 -16.0912 3.3663 2.9806 -7.9518 2.2089 15.2592 11.2231 19.2506 24.6875 -52.3961 -7.0718 -15.5953 -140.6230 -0.0000 -11.4883 3.0647 9.1817 -18.5487 33.1476 -0.0000 26.2537 -16.6076 -15.4654 -15.5021 14.0361 6.2856 74.0477 19.6459 -0.0000 22.3490 1.2492 -7.7401 9.1973 32.8623 0.0000 -24.3270 -4.4363 4.5256 5.2591 -2.1862 0.0000 -0.0000 -6.5937 10.9694 -16.1061 11.8556 -0.0000 0.0000 -5.3156 -10.2283 -3.3005 1.9882 0.0000 0.0000 -7.9861 0.2634 -14.0714 -0.5585 0.0000 -0.0000
 -6.1921 32.8609 -4.4446 9.5366 5.6035 -1.8116 -16.1517 3.7106 2.9594 -7.8617 1.8758 15.2832 11.4916 19.7086 24.4939 -52.5946 -7.3036 -15.3241 -141.7184 -0.0000 -11.6667 3.2035 9.5523 -18.6378 33.1476 -0.0000 26.2537 -16.6334 -15.5533 -15.5260 14.1467 6.1719 74.0448 19.5857 -0.0000 22.4107 1.2488 -7.6924 9.2497 32.8623 0.0000 -24.3270 -4.4545 4.6104 5.2637 -2.2016 -0.0000 -0.0000 -6.6013 10.9244 -16.1179 11.8510 -0.0000 -0.0000 -5.3278 -10.2201 -3.2950 1.9628 0.0000 0.0000 -7.9694 0.2923 -14.0435 -0.6031 -0.0000 -0.0000
 -6.1887 32.8593 -4.4345 9.5584 5.6419 -1.8126 -16.2436 4.0949 2.9355 -7.6278 1.4397 15.2527 11.4268 19.7558 24.5763 -52.2471 -7.3572 -15.0868 -142.8838 -0.0000 -11.8078 3.2109 9.4354 -18.8913 33.1476 -0.0000 26.2537 -16.4817 -15.6506 -15.5556 14.1504 5.9740 74.0883 19.5161 -0.0000 22.4378 1.2596 -7.7467 9.2645 32.8623 0.0000 -24.3270 -4.4494 4.6210 5.2508 -2.2316 0.0000 -0.0000 -6.5975 10.8960 -16.1204 11.8123 -0.0000 0.0000 -5.3182 -10.3053 -3.3058 1.9366 0.0000 0.0000 -7.9790 0.3648 -14.0464 -0.6164 0.0000 -0.0000
 -6.1873 32.8574 -4.4280 9.6068 5.7098 -1.8283 -16.3360 4.4590 2.9205 -7.4772 1.0034 15.1763 10.7670 19.3582 24.9900 -51.2113 -7.0757 -14.8250 -144.1144 -0.0000 -12.0045 3.0798 8.7854 -19.4065 33.1476 -0.0000 26.2537 -16.4632 -15.7613 -15.6449 14.2588 5.8569 74.1499 19.4433 -0.0000 22.5005 1.2566 -7.7445 9.2452 32.8623 0.0000 -24.3270 -4.4939 4.6282 5.2510 -2.2391 0.0000 0.0000 -6.6026 10.8466 -16.1383 11.8117 0.0000 -0.0000 -5.3415 -10.3118 -3.3078 1.9378 0.0000 0.0000 -7.9924 0.3365 -13.9888 -0.6870 0.0000 0.0000
 -6.1862 32.8563 -4.4175 9.6224 5.8131 -1.8488 -16.4167 4.7821 2.8930 -7.2734 0.5787 15.1395 10.7453 19.3913 25.0379 -50.8918 -7.3502 -14.6438 -145.1203 -0.0000 -12.0950 3.0957 8.7779 -19.5143 33.1476 -0.0000 26.2537 -16.4076 -15.9032 -15.6758 14.3451 5.8514 74.1525 19.3448 -0.0000 22.4928 1.2578 -7.7908 9.2003 32.8623 0.0000 -24.3270 -4.5005 4.6512 5.2569 -2.2587 0.0000 -0.0000 -6.6030 10.7504 -16.1258 11.8074 -0.0000 0.0000 -5.3076 -10.3331 -3.3012 1.9177 0.0000 -0.0000 -8.0078 0.3026 -14.0051 -0.6600 -0.0000 0.0000
 -6.1842 32.8558 -4.4064 9.6224 5.9646 -1.8737 -16.4893 5.0650 2.8739 -7.0218 0.2070 15.0576 10.8854 19.5489 24.9812 -50.7592 -7.8871 -14.5886 -145.9895 -0.0000 -11.9738 3.1124 8.7476 -19.6736 33.1476 -0.0000 26.2537 -16.3766 -15.9951 -15.7167 14.4495 5.8084 74.1570 19.2153 -0.0000 22.4594 1.2633 -7.7779 9.2550 32.8623 0.0000 -24.3270 -4.4939 4.6506 5.2637 -2.2839 0.0000 -0.0000 -6.5882 10.6326 -16.1906 11.8353 0.0000 0.0000 -5.2360 -10.3815 -3.2890 1.8672 -0.0000 -0.0000 -7.9903 0.2378 -14.0060 -0.6892 0.0000 0.0000
 -6.1832 32.8559 -4.3932 9.5814 6.1716 -1.9061 -16.5182 5.3377 2.8146 -6.7436 -0.2371 15.0852 11.6826 20.1989 24.5184 -51.4798 -9.0316 -14.6666 -146.5220 -0.0000 -11.6783 3.2161 8.8806 -20.0007 33.1476 -0.0000 26.2537 -16.2963 -16.1407 -15.6881 14.5018 5.7829 74.1143 19.0352 -0.0000 22.3906 1.2559 -7.7236 9.2646 32.8623 0.0000 -24.3270 -4.4402 4.5936 5.2765 -2.3223 -0.0000 -0.0000 -6.5608 10.5190 -16.1851 11.7842 0.0000 -0.0000 -5.1187 -10.4514 -3.2690 1.8365 -0.0000 -0.0000 -7.9895 0.1323 -13.9805 -0.7409 -0.0000 -0.0000
 -6.1823 32.8556 -4.3826 9.5422 6.4048 -1.9375 -16.5475 5.5436 2.7679 -6.4794 -0.6167 15.0671 12.2725 20.6508 24.1296 -51.9046 -10.1284 -14.7251 -147.0231 -0.0000 -11.0968 3.2037 8.8170 -20.0607 33.1476 -0.0000 26.2537 -16.2337 -16.2675 -15.6720 14.5184 5.7988 74.0882 18.8705 -0.0000 22.3541 1.2762 -7.8006 9.3212 32.8623 0.0000 -24.3270 -4.4110 4.5657 5.2889 -2.3396 0.0000 0.0000 -6.5452 10.3458 -16.2143 11.8199 0.0000 0.0000 -5.0218 -10.4682 -3.2602 1.8576 0.0000 -0.0000 -8.0247 -0.0180 -13.9657 -0.7399 0.0000 0.0000
 -6.1839 32.8548 -4.3704 9.4859 6.6760 -1.9850 -16.5710 5.7076 2.7556 -6.1709 -0.9686 14.9709 12.5893 20.7242 23.9194 -52.0273 -10.8655 -14.6591 -147.5487 -0.0000 -10.8350 3.3083 8.8901 -20.5084 33.1476 -0.0000 26.2537 -16.2239 -16.3706 -15.6989 14.5954 5.8166 74.0714 18.7185 -0.0000 22.2418 1.2965 -7.8549 9.4031 32.8623 0.0000 -24.3270 -4.4180 4.6658 5.3137 -2.2861 -0.0000 -0.0000 -6.5579 10.0348 -16.1888 11.7082 0.0000 0.0000 -4.8817 -10.4966 -3.2223 1.8471 -0.0000 0.0000 -8.0465 -0.2204 -13.9233 -0.7577 0.0000 0.0000
 -6.1840 32.8507 -4.3634 9.4916 6.9784 -1.9990 -16.6559 5.7514 2.7675 -5.8793 -1.1825 14.6132 10.6862 19.1234 25.1485 -49.3771 -9.9459 -14.5460 -148.6055 -0.0000 -10.5399 3.2353 8.7257 -20.4362 33.1476 -0.0000 26.2537 -16.1735 -16.4312 -15.8787 14.5360 5.8964 74.2283 18.5052 -0.0000 22.2898 1.2997 -7.8401 9.4430 32.8623 0.0000 -24.3270 -4.4454 4.5498 5.3029 -2.2904 -0.0000 0.0000 -6.5655 9.8926 -16.2536 11.7780 -0.0000 0.0000 -4.8298 -10.5133 -3.2340 1.8758 -0.0000 0.0000 -8.1355 -0.4590 -13.9558 -0.7689 -0.0000 0.0000
 -6.1842 32.8485 -4.3558 9.4389 7.2990 -2.0161 -16.6707 5.7714 2.7139 -5.5842 -1.4078 14.5123 10.4471 18.8124 25.3134 -48.8725 -10.3218 -14.5832 -148.9976 -0.0000 -10.4702 3.3041 8.8061 -20.6618 33.1476 -0.0000 26.2537 -16.1523 -16.4719 -15.9056 14.5277 5.9313 74.2634 18.3305 -0.0000 22.3655 1.2965 -7.8051 9.4618 32.8623 0.0000 -24.3270 -4.4152 4.4516 5.2998 -2.3050 0.0000 0.0000 -6.5336 9.7074 -16.3082 11.7616 0.0000 0.0000 -4.7152 -10.5050 -3.2327 1.9091 0.0000 0.0000 -8.2172 -0.7309 -14.0241 -0.6813 -0.0000 0.0000
 -6.1827 32.8463 -4.3502 9.3785 7.6867 -2.0261 -16.6599 5.6989 2.6262 -5.3126 -1.5878 14.4555 10.4407 18.7052 25.3189 -48.7539 -10.9007 -14.6784 -149.1718 -0.0000 -10.6066 3.0971 8.3393 -20.4589 33.1476 -0.0000 26.2537 -16.1606 -16.4853 -15.9115 14.5400 5.9788 74.2819 18.1818 -0.0000 22.4008 1.3007 -7.8138 9.4815 32.8623 0.0000 -24.3270 -4.3903 4.2583 5.2837 -2.2997 -0.0000 0.0000 -6.5015 9.5385 -16.3651 11.7922 -0.0000 0.0000 -4.5843 -10.5388 -3.2419 1.9356 0.0000 -0.0000 -8.3018 -1.0514 -14.0841 -0.6482 -0.0000 -0.0000
 -6.1840 32.8448 -4.3461 9.2946 8.0602 -2.0428 -16.6146 5.5282 2.5558 -5.0527 -1.6519 14.4053 10.5388 18.7424 25.2553 -48.7725 -11.5713 -14.8105 -149.2231 -0.0000 -10.8517 3.1676 8.5457 -20.4264 33.1476 -0.0000 26.2537 -16.1818 -16.3963 -15.8937 14.5528 6.0841 74.3002 18.0368 -0.0000 22.3851 1.3001 -7.6988 9.6151 32.8623 0.0000 -24.3270 -4.3456 4.1134 5.2853 -2.2962 0.0000 0.0000 -6.4788 9.3417 -16.4242 11.7725 0.0000 -0.0000 -4.4432 -10.5093 -3.2395 1.9909 -0.0000 -0.0000 -8.3803 -1.3983 -14.1305 -0.6165 0.0000 -0.0000
 -6.1807 32.8427 -4.3476 9.2309 8.5316 -2.0632 -16.5686 5.2313 2.4865 -4.8530 -1.6836 14.3076 10.4740 18.6267 25.2946 -48.6577 -12.0196 -14.9573 -149.2587 -0.0000 -11.1164 3.2114 8.5538 -20.6677 33.1476 -0.0000 26.2537 -16.2238 -16.2892 -15.9064 14.5544 6.1432 74.3349 17.9788 -0.0000 22.4034 1.2993 -7.6786 9.6337 32.8623 0.0000 -24.3270 -4.3525 3.8377 5.2710 -2.2518 0.0000 0.0000 -6.4622 9.1775 -16.5020 11.7838 0.0000 -0.0000 -4.2767 -10.4961 -3.2441 1.9642 0.0000 0.0000 -8.4468 -1.8230 -14.1707 -0.5011 -0.0000 0.0000
 -6.1875 32.8426 -4.3408 9.1338 8.9602 -2.1231 -16.5093 4.9543 2.4436 -4.6464 -1.6905 14.2757 10.4524 18.4991 25.3450 -48.6301 -12.4212 -15.1126 -149.2537 -0.0000 -11.3661 3.1254 8.3811 -20.5367 33.1476 -0.0000 26.2537 -16.2326 -16.2455 -15.8729 14.5046 6.2387 74.3462 17.9333 -0.0000 22.3856 1.3124 -7.7281 9.6683 32.8623 0.0000 -24.3270 -4.3089 3.6623 5.3284 -2.2267 -0.0000 0.0000 -6.4266 8.8629 -16.4755 11.5977 -0.0000 -0.0000 -4.1272 -10.5602 -3.1821 2.0654 0.0000 0.0000 -8.5319 -2.1614 -14.2308 -0.5152 0.0000 0.0000
 -6.1892 32.8415 -4.3395 9.0517 9.3674 -2.1418 -16.4399 4.6665 2.3722 -4.5095 -1.6441 14.2427 10.4517 18.4447 25.3717 -48.6374 -12.9003 -15.3124 -149.1715 -0.0000 -11.4865 3.1644 8.5143 -20.4763 33.1476 -0.0000 26.2537 -16.2669 -16.1736 -15.8411 14.4502 6.2314 74.3680 17.9644 -0.0000 22.5212 1.2947 -7.5755 9.7276 32.8623 0.0000 -24.3270 -4.2896 3.5217 5.3313 -2.2043 -0.0000 0.0000 -6.3906 8.6114 -16.5166 11.5364 -0.0000 0.0000 -4.0134 -10.5844 -3.1722 2.1712 -0.0000 -0.0000 -8.6368 -2.5173 -14.3057 -0.4663 -0.0000 -0.0000
 -6.1894 32.8411 -4.3403 8.9776 9.7726 -2.1614 -16.3694 4.3563 2.3165 -4.4095 -1.5986 14.1988 10.4535 18.4295 25.3932 -48.6658 -13.4037 -15.5913 -149.0726 -0.0000 -11.6282 3.3412 9.2279 -20.0043 33.1476 -0.0000 26.2537 -16.3101 -16.1012 -15.8245 14.3955 6.2852 74.3932 18.0397 -0.0000 22.4953 1.2964 -7.5853 9.7278 32.8623 0.0000 -24.3270 -4.2881 3.3825 5.3330 -2.1772 -0.0000 -0.0000 -6.3651 8.4392 -16.7328 11.7541 -0.0000 0.0000 -3.9379 -10.7025 -3.1683 2.3172 -0.0000 0.0000 -8.7560 -2.7759 -14.3709 -0.3769 0.0000 -0.0000
